# xmcd CD database file
#
# Track frame offsets:
#	150
#	13747
#	26180
#	38562
#	50145
#	60630
#	75250
#	85235
#	98812
#	113032
#	122935
#	133270
#	147755
#	160685
#	172487
#	189277
#	204262
#	219647
#	234387
#	248455
#	263227
#
# Disc length: 3698 seconds
#
# Revision: 2
# Processed by: cddbd v1.5.1PL0 Copyright (c) Steve Scherf et al.
# Submitted via: CDex 1.51
#
DISCID=210e7015
DTITLE=???? - VINTAGE COLLECTION
DYEAR=1900
DGENRE=Rock
TTITLE0=????????
TTITLE1=????
TTITLE2=??????????
TTITLE3=???
TTITLE4=????
TTITLE5=???????
TTITLE6=?????????????
TTITLE7=?????????
TTITLE8=???????
TTITLE9=??????
TTITLE10=????????
TTITLE11=????
TTITLE12=?????
TTITLE13=??????
TTITLE14=????????
TTITLE15=????????
TTITLE16=??????
TTITLE17=?????
TTITLE18=??????
TTITLE19=??????????
TTITLE20=??????
EXTD=
EXTT0=
EXTT1=
EXTT2=
EXTT3=
EXTT4=
EXTT5=
EXTT6=
EXTT7=
EXTT8=
EXTT9=
EXTT10=
EXTT11=
EXTT12=
EXTT13=
EXTT14=
EXTT15=
EXTT16=
EXTT17=
EXTT18=
EXTT19=
EXTT20=
PLAYORDER=
